<svg xmlns="http://www.w3.org/2000/svg" width="100%" height="100%" viewBox="0 0 480 360" fill="none">
  <g transform="translate(0.000000,360.000000) scale(0.100000,-0.100000)" fill="#000000" stroke="none">
    <!-- Background elements -->
    <path opacity="0.24" d="M1660 2410 c-107 -28 -204 -98 -260 -187 -28 -44 -55 -129 -40 -129 4 0 13 15 20 33 19 47 76 117 127 157 66 51 138 78 233 86 44 3 96 7 115 9 151 14 305 -61 375 -183 65 -113 60 -290 -12 -391 -19 -27 -19 -27 0 -20 31 10 86 74 112 130 20 42 24 64 24 140 0 80 -3 97 -27 145 -58 116 -168 191 -313 212 -94 14 -264 12 -354 -2z" fill="#A67B5B"/>
    <path opacity="0.24" d="M2740 1575 c-63 -14 -144 -54 -191 -95 -75 -66 -112 -143 -117 -243 -7 -131 36 -228 133 -298 80 -59 148 -79 265 -79 82 0 101 3 155 28 80 36 147 103 184 183 26 54 31 75 31 149 0 74 -5 95 -31 149 -37 80 -104 147 -184 183 -62 29 -177 40 -245 23z m164 -40 c211 -48 307 -296 183 -472 -85 -121 -251 -166 -391 -106 -219 94 -257 370 -73 523 73 62 180 86 281 55z" fill="#8B593E"/>
    <path opacity="0.24" d="M1045 1265 c-52 -18 -127 -96 -149 -155 -10 -25 -19 -74 -21 -110 -3 -59 0 -71 30 -130 38 -74 79 -110 155 -135 48 -16 74 -19 145 -14 102 7 150 31 214 107 60 70 83 155 70 257 -9 63 -59 145 -110 180 -56 39 -91 48 -185 51 -71 2 -99 -1 -149 -21z m219 -26 c78 -20 151 -91 174 -169 48 -162 -72 -327 -240 -327 -177 0 -299 172 -244 345 42 135 177 199 310 151z" fill="#C25F4E"/>
    
    <!-- Support Agent -->
    <path d="M2300 1720 c-75 -23 -130 -58 -177 -115 -67 -81 -93 -156 -93 -270 0 -84 16 -145 57 -215 38 -65 138 -148 188 -156 20 -3 37 -9 39 -14 2 -5 -14 -19 -34 -32 -50 -31 -101 -93 -126 -153 -24 -57 -19 -63 8 -10 46 94 142 175 194 165 14 -3 31 -20 45 -45 30 -55 85 -115 137 -150 46 -31 96 -55 115 -55 6 0 21 -7 32 -15 19 -14 47 -18 61 -7 3 2 -9 19 -26 37 -17 18 -30 39 -30 46 0 14 81 59 130 71 19 5 61 10 93 11 l59 2 -6 38 c-10 66 -50 153 -96 206 -24 29 -44 55 -43 59 0 5 -1 13 -3 19 -7 18 57 112 107 158 26 24 61 50 79 59 17 9 36 24 41 34 17 31 -8 43 -80 38 -67 -4 -70 -3 -109 32 -22 20 -61 50 -87 67 -45 30 -47 30 -88 14 l-43 -16 -34 31 c-19 17 -47 35 -64 40 -19 7 -27 13 -20 19 20 12 14 43 -10 56 -13 7 -43 14 -67 17 -67 6 -56 23 21 31 37 4 72 11 79 16 13 10 -15 27 -83 52 -46 16 -153 18 -195 5z" fill="#8B593E"/>
    
    <!-- Customer & Computer -->
    <path d="M3740 1655 c-75 -45 -255 -125 -302 -135 -36 -7 -38 -9 -38 -44 0 -41 -15 -51 -30 -19 -14 29 -40 29 -117 0 -119 -46 -214 -127 -246 -212 -12 -30 -21 -80 -22 -111 -1 -67 25 -147 62 -192 31 -38 111 -95 158 -113 98 -39 245 -20 345 44 42 26 45 31 51 81 3 30 14 70 24 90 10 20 23 54 30 76 9 30 19 43 45 54 71 32 69 29 79 122 5 45 12 98 16 117 4 19 8 62 9 95 l2 59 -66 44 z" fill="#A67B5B"/>
    
    <!-- Computer screen -->
    <path d="M3740 1580 c-75 -45 -255 -125 -302 -135 -35 -7 -38 -9 -38 -44 0 -41 -15 -51 -30 -19 -14 29 -40 29 -117 0 -119 -46 -214 -127 -246 -212 -12 -30 -21 -80 -22 -111 -1 -67 25 -147 62 -192 31 -38 111 -95 158 -113 98 -39 245 -20 345 44 42 26 45 31 51 81 3 30 14 70 24 90 10 20 23 54 30 76 9 30 19 43 45 54 71 32 69 29 79 122 5 45 12 98 16 117 4 19 8 62 9 95 l2 59 -66 44z" fill="#FFF"/>
    <rect x="3000" y="1300" width="320" height="220" rx="10" fill="#8B593E" opacity="0.2"/>
    <rect x="3020" y="1320" width="280" height="160" rx="5" fill="#FFF"/>
    
    <!-- Chat bubbles -->
    <rect x="3030" y="1340" width="100" height="30" rx="15" fill="#8B593E" opacity="0.6"/>
    <rect x="3050" y="1380" width="180" height="30" rx="15" fill="#8B593E" opacity="0.3"/>
    <rect x="3190" y="1420" width="100" height="30" rx="15" fill="#D4B8A5"/>
    
    <!-- Headset on Support Agent -->
    <path d="M2240 1850 c-22 -22 -25 -31 -20 -68 5 -36 3 -47 -15 -65 -30 -31 -32 -86 -3 -112 21 -19 23 -19 45 -2 22 16 24 17 30 1 3 -10 15 -19 26 -22 15 -4 19 -1 15 11 -3 9 -2 22 3 29 5 9 9 9 14 1 4 -6 15 -14 25 -18 15 -5 19 -1 19 20 0 14 -4 25 -10 25 -5 0 -10 7 -10 15 0 8 5 15 10 15 6 0 10 14 10 30 0 17 -4 30 -10 30 -5 0 -10 7 -10 15 0 11 11 15 40 15 22 0 40 5 40 10 0 6 -18 10 -40 10 -36 0 -40 2 -40 25 0 14 -4 25 -9 25 -5 0 -12 -11 -15 -25 -4 -19 -11 -25 -31 -25 -14 0 -25 5 -25 10 0 6 -11 10 -25 10 -13 0 -22 4 -19 10 3 5 17 10 31 10 24 0 25 2 21 48 -3 36 -9 52 -26 64 -36 25 -46 23 -21 -5 33 -36 25 -107 -12 -107 -8 0 -22 12 -30 26 -13 23 -18 25 -47 18 -28 -6 -33 -11 -38 -40 -7 -55 9 -86 50 -92 26 -4 36 -2 41 13 4 10 13 15 22 12 10 -4 13 -13 9 -26 -3 -11 -1 -22 5 -25 16 -10 12 -51 -6 -62 -13 -7 -20 -6 -24 5 -3 8 -13 15 -23 15 -15 0 -18 -8 -18 -44 0 -24 -5 -48 -10 -53 -6 -6 -24 -9 -40 -8 -24 3 -32 -1 -40 -19 -6 -16 -7 -26 -1 -31 6 -3 11 -17 13 -31 3 -27 29 -54 53 -54 10 0 15 10 15 30 0 25 4 30 25 30 14 0 25 -4 25 -10 0 -5 5 -10 10 -10 6 0 10 9 10 20 0 11 -4 20 -10 20 -5 0 -10 11 -10 25 0 14 5 25 10 25 6 0 10 7 10 15 0 8 -4 15 -10 15 -5 0 -10 11 -10 25 0 34 -31 65 -64 65 -21 0 -33 -8 -46 -30z" fill="#333"/>
    
    <!-- Coffee mug -->
    <path d="M1980 1350 c-20 -20 -20 -35 0 -54 20 -18 80 -21 80 -4 0 7 -4 19 -10 28 -5 9 -10 25 -10 36 0 28 -37 24 -60 -6z" fill="#D4B8A5"/>
  </g>
</svg> 